<svg version="1.1" id="1" xmlns="http://www.w3.org/2000/svg" xmlns:xlink="http://www.w3.org/1999/xlink" x="0px" y="0px" viewBox="0 0 50 50" style="enable-background:new 0 0 50 50;" xml:space="preserve"><style type="text/css">.st0{fill:#1296db;}</style><path class="st0" d="M25.6 4.266667a4.266667 4.266667 0 0 1 4.266667 4.266667c0 1.578667-0.853333 2.965333-2.133333 3.690667V14.933333h2.133333a14.933333 14.933333 0 0 1 14.933334 14.933334h2.133333a2.133333 2.133333 0 0 1 2.133334 2.133333v6.4a2.133333 2.133333 0 0 1-2.133334 2.133333h-2.133333v2.133334a4.266667 4.266667 0 0 1-4.266667 4.266666H10.666667a4.266667 4.266667 0 0 1-4.266667-4.266666v-2.133334H4.266667a2.133333 2.133333 0 0 1-2.133334-2.133333v-6.4a2.133333 2.133333 0 0 1 2.133334-2.133333h2.133333a14.933333 14.933333 0 0 1 14.933333-14.933334h2.133334V12.224c-1.28-0.725333-2.133333-2.112-2.133333-3.690667a4.266667 4.266667 0 0 1 4.266667-4.266667M16 27.733333A5.333333 5.333333 0 0 0 10.666667 33.066667 5.333333 5.333333 0 0 0 16 38.4a5.333333 5.333333 0 0 0 5.333333-5.333333A5.333333 5.333333 0 0 0 16 27.733333m19.2 0a5.333333 5.333333 0 0 0-5.333333 5.333333 5.333333 5.333333 0 0 0 5.333333 5.333333 5.333333 5.333333 0 0 0 5.333333-5.333333 5.333333 5.333333 0 0 0-5.333333-5.333333z"/></svg>
