<svg version="1.1" id="1" xmlns="http://www.w3.org/2000/svg" xmlns:xlink="http://www.w3.org/1999/xlink" x="0px" y="0px" viewBox="0 0 50 50" style="enable-background:new 0 0 50 50;" xml:space="preserve">
    <style type="text/css">
        .st0{fill:#0B8383;}
    </style>
    <path class="st0" d="M299.574468 900.629787c-45.753191-25.87234-84.697872-47.931915-86.604255-49.021276-2.451064-1.634043-3.268085-90.417021-3.268085-389.174468 0-367.387234 0.27234-386.723404 4.902127-384.817022 6.26383 2.451064 78.978723 28.595745 87.693617 31.319149 16.068085 5.174468 76.52766 27.234043 78.978724 28.595745 1.906383 1.089362 2.723404 108.93617 2.723404 306.382979 0 271.251064 0.544681 304.748936 4.085106 303.387234 7.625532-2.995745 231.489362-132.085106 235.302128-135.897873 2.995745-2.995745 1.361702-4.629787-10.893617-10.348936-28.051064-13.07234-96.408511-45.480851-100.221277-47.659574-2.178723-1.361702-19.608511-41.395745-38.67234-89.32766-19.33617-47.659574-36.221277-89.055319-37.855319-91.778723-1.634043-2.995745-2.451064-5.719149-1.634043-6.536171 0.544681-0.817021 11.438298 2.451064 23.965958 6.808511 12.52766 4.629787 37.310638 13.344681 55.285106 19.608511s42.485106 14.706383 54.468085 19.06383 36.493617 12.8 54.468085 19.063829 42.485106 14.706383 54.468085 19.06383 36.493617 12.8 54.468086 19.06383 42.485106 14.706383 54.468085 19.06383c11.982979 4.085106 24.510638 8.442553 28.051063 9.531915l5.99149 1.634042v197.99149l-56.374468 32.680851c-64.27234 36.765957-177.838298 102.4-190.093617 109.480851-4.357447 2.723404-36.221277 20.970213-70.808511 40.851063-73.531915 42.485106-73.259574 42.212766-98.314894 56.919149-10.621277 5.991489-19.880851 11.165957-20.425531 10.893617-0.544681 0-38.4-21.242553-84.153192-46.842553z"/>
</svg>
