<svg version="1.1" id="1" xmlns="http://www.w3.org/2000/svg" xmlns:xlink="http://www.w3.org/1999/xlink" x="0px" y="0px" viewBox="0 0 50 50" style="enable-background:new 0 0 50 50;" xml:space="preserve"><style type="text/css">.st0{fill:#0B8383;}</style><path class="st0" d="M14.978723 45.031915c-2.251064-1.27234-4.17234-2.368085-4.268085-2.42766-0.120213-0.080851-0.160851-4.491489-0.160851-19.32234 0-18.369362 0.013617-19.33617 0.245957-19.240426 0.314043 0.122106 3.978723 1.42234 4.419149 1.55745 0.810851 0.257446 3.851064 1.357446 3.978723 1.42234 0.096383 0.054681 0.137234 5.434043 0.137234 15.319149 0 13.562553 0.027234 15.237234 0.204255 15.169149 0.381277-0.150106 11.574468-6.554468 11.765957-6.794681 0.150106-0.150106 0.068085-0.231915-0.544681-0.517447-1.402128-0.653191-4.821277-2.27234-5.011914-2.381277-0.108085-0.068085-0.97234-2.041702-1.91617-4.409574-0.957446-2.381277-1.793617-4.448936-1.870213-4.58617-0.080851-0.150106-0.121702-0.28617-0.081276-0.32766 0.027234-0.040851 0.557447 0.122106 1.168085 0.340426 0.612766 0.231915 1.823404 0.668085 2.697872 0.981277s2.07234 0.735745 2.654255 0.953191 1.77234 0.641702 2.654255 0.953191 2.07234 0.735745 2.654255 0.953191 1.77234 0.641702 2.654255 0.953191 2.07234 0.735745 2.654255 0.953191c0.581915 0.204255 1.22766 0.421277 1.402128 0.481702l0.298936 0.081276v9.899574l-2.818085 1.635106c-3.213617 1.837234-8.890213 5.11617-9.504255 5.474468-0.217021 0.13617-1.804255 0.87766-3.52766 1.709574-3.664894 2.114894-3.651064 2.099574-4.901064 2.739149-0.529787 0.298936-0.991489 0.558298-1.021276 0.544681-0.027234 0-1.913617-1.059574-4.191489-2.340426z"/></svg>
