<svg t="1720601923378" class="icon" viewBox="0 0 1024 1024" version="1.1" xmlns="http://www.w3.org/2000/svg" p-id="11024" width="50" height="50"><path d="M130.8 781.2c-13.2-2-42.8-28.8-42.8-38.8 0-3.6-2-5.6-4-4.4-2.4 1.6-4-6.4-4-21.6 0-12.8 1.6-24.4 3.2-25.2 1.6-0.4 15.6-22.8 30.4-49.2 39.2-68 65.6-114 92.4-160 23.6-40.4 47.2-81.2 86.8-150 36.4-63.6 42.8-72.4 57.2-78.4 26.4-10.8 62.8-4.8 78.8 12.8 3.6 4.4 13.6 20.4 22.4 35.6 8.4 15.6 26 46 38.8 68s46 79.6 74 128 64.8 111.2 81.2 139.6C678.4 694 682 704 678 730c-4.4 31.2-29.6 50.8-64.4 50.8-26.8 0-46.4-14.4-64-47.2-26-48.4-143.6-246-149.6-251.6-9.6-8.4-24.8-9.2-36.8-0.8-5.2 3.2-20.8 26.4-35.2 51.2-14 25.2-36 62.8-48 83.6-12.4 20.8-28 48-34.8 60-45.6 82.4-57.2 97.6-81.2 104-7.6 2-15.6 3.6-18 3.2-2 0-9.2-1.2-15.2-2z m719.2-6.8c-20.8-10-24-13.6-55.2-68.4-10-17.6-37.6-65.2-61.2-106-64.4-110-66.4-114.8-64.4-137.2 1.6-20.4 10.4-35.2 28.4-48.4 8.4-6.4 16.8-8.4 36-8.4 39.2 0 42.4 3.6 118.4 136 36.4 63.2 71.2 123.6 77.6 134.8 22.4 38.4 12.4 79.6-23.2 96.8-23.6 11.2-34.8 11.2-56.4 0.8z m-236.4-404c-24.4-10.8-41.2-44.4-36-72.4 2-9.2 8.8-21.2 18.4-31.6l15.6-16.4h30c27.6 0 30.8 0.8 42.4 12 19.2 18.4 25.2 32.4 23.2 54.8-2 20.8-10.8 35.6-28.4 48.8-13.2 10-48.4 12.8-65.2 4.8z" fill="#194ABF" p-id="11025"></path></svg>
