<svg version="1.1" id="1" xmlns="http://www.w3.org/2000/svg" xmlns:xlink="http://www.w3.org/1999/xlink" x="0px" y="0px" viewBox="0 0 50 50" style="enable-background:new 0 0 50 50;" xml:space="preserve"><style type="text/css">.st0{fill:#194ABF;}</style><path class="st0" d="M6.5,39.1c-0.8-0.1-2.6-1.8-2.6-2.4c0-0.2-0.1-0.3-0.2-0.3c-0.1,0.1-0.2-0.4-0.2-1.4c0-0.8,0.1-1.5,0.2-1.5 c0.1,0,0.9-1.4,1.9-3c2.5-4.3,4.1-7.2,5.8-10.1c1.5-2.5,3-5.1,5.5-9.4c2.3-4,2.7-4.6,3.6-5c1.6-0.7,3.8-0.3,4.8,0.8c0.2,0.3,0.8,1.2,1.3,2.1c0.5,0.9,1.6,2.6,2.4,3.8s2.9,4.4,4.6,7.1s4.1,6.2,5.2,7.8c1.4,2.2,1.5,2.7,1.3,4.1 c-0.3,2-1.9,3.3-4.1,3.3c-1.7,0-2.9-0.9-4-3c-1.6-3.1-8.8-15.8-9.2-16.2c-0.6-0.5-1.5-0.6-2.3-0.1c-0.3,0.2-1.3,1.6-2.2,3.1 c-0.9,1.5-2.2,3.8-3,5.1c-0.8,1.3-1.8,3-2.2,3.8c-2.9,5.3-3.6,6.3-5.1,6.7c-0.5,0.1-0.9,0.2-1.1,0.2c-0.1,0-0.6-0.1-1-0.1z M35.1,38.7c-1.2-0.6-1.4-0.8-3.2-4c-0.6-1-2.2-3.7-3.6-6c-3.8-6.3-3.9-6.6-3.8-7.9c0.1-1.2,0.6-2.2,1.7-3c0.5-0.4,1-0.5,2.1-0.5 c2.3,0,2.5,0.2,7,8.2c2.2,4,4.4,7.8,4.8,8.5c1.4,2.4,0.8,5-1.4,6.1c-1.4,0.7-2.1,0.7-3.5,0.1z M29.1,14.5c-1.4-0.6-2.4-2.4-2.1-4 c0.1-0.5,0.5-1.2,1-1.8l0.9-0.9h1.8c1.6,0,1.8,0,2.5,0.7c1.1,1,1.4,1.7,1.3,2.9c-0.1,1.1-0.6,1.9-1.7,2.6 c-0.8,0.5-3,0.6-4.1,0.2z"/></svg>
