<svg version="1.1" id="1" xmlns="http://www.w3.org/2000/svg" xmlns:xlink="http://www.w3.org/1999/xlink" x="0px" y="0px" viewBox="0 0 50 50" style="enable-background:new 0 0 50 50;" xml:space="preserve"><style type="text/css">.st0{fill:#194ABF;}</style><path class="st0" d="M26.16 15.624c-2.64-0.4-8.56-5.76-8.56-7.76 0-0.72-0.4-1.12-0.8-0.88-0.48 0.32-0.8-1.28-0.8-4.32 0-2.56 0.32-4.88 0.64-5.04 0.32-0.08 3.12-4.56 6.08-9.84 7.84-13.6 13.12-22.8 18.48-32 4.72-8.08 9.44-16.24 17.36-30 7.28-12.72 8.56-14.48 11.44-15.68 5.28-2.16 12.56-0.96 15.76 2.56 0.72 0.88 2.72 4.08 4.48 7.12 1.68 3.12 5.2 9.2 7.76 13.6s9.2 15.92 14.8 25.6 12.96 22.24 16.24 27.92C135.68 138.8 136.4 140.8 135.6 146c-0.88 6.24-5.92 10.16-12.88 10.16-5.36 0-9.28-2.88-12.8-9.44-5.2-9.68-28.72-49.2-29.92-50.32-1.92-1.68-4.96-1.84-7.36-0.16-1.04 0.64-4.16 5.28-7.04 10.24-2.8 5.04-7.2 12.56-9.6 16.72-2.48 4.16-5.6 9.6-6.96 12-9.12 16.48-11.44 19.52-16.24 20.8-1.52 0.4-3.12 0.72-3.6 0.64-0.4 0-1.84-0.24-3.04-0.4z m143.84-1.36c-4.16-2-4.8-2.72-11.04-13.68-2-3.52-7.52-13.04-12.24-21.2-12.88-22-13.28-22.96-12.88-27.44 0.32-4.08 2.08-7.04 5.68-9.68 1.68-1.28 3.36-1.68 7.2-1.68 7.84 0 8.48 0.72 23.68 27.2 7.28 12.64 14.24 24.72 15.52 26.96 4.48 7.68 2.48 15.92-4.64 19.36-4.72 2.24-6.96 2.24-11.28 0.16z m-47.28-80.8c-4.88-2.16-8.24-8.88-7.2-14.48 0.4-1.84 1.76-4.24 3.68-6.32l3.12-3.28h6c5.52 0 6.16 0.16 8.48 2.4 3.84 3.68 5.04 6.48 4.64 10.96-0.4 4.16-2.16 7.12-5.68 9.76-2.64 2-9.68 2.56-13.04 0.96z"/></svg>
