<svg version="1.1" id="1" xmlns="http://www.w3.org/2000/svg" xmlns:xlink="http://www.w3.org/1999/xlink" x="0px" y="0px" viewBox="0 0 50 50" style="enable-background:new 0 0 50 50;" xml:space="preserve"><style type="text/css">.st0{fill:#2319DC;}</style><path class="st0" d="M29.8,33.7h-2.2c0,0-0.3-0.2-0.3-0.7v-4.6h-2.5v5.2c0,0,0.2,1.4,2.1,1.4h4.2v-6.2h-1.3V33.7L29.8,33.7z M22.3,28.8H20c0,0-2.2-0.1-2.9,2.4c-0.3,1.6,0.2,2.3,0.3,2.5c0.1,0.2,0.8,1.4,2.5,1.4h3.7v-9.4h-1.3L22.3,28.8L22.3,28.8z M22.3,33.7h-1.8c0,0-1.1,0-1.5-1.3c-0.2-0.6,0-1.1,0.1-1.4s0.5-1,1.3-1h2v3.7H22.3z M50,0H0v50h50V0z M26.4,14 c0.2-1.7,2.2-4.3,3.9-4c1.6,0.4,3.1,2.5,2.8,4.4s-1.8,4.3-4.1,4C26.7,18.2,26.2,16.1,26.4,14z M21.6,9.3c1.7,0,3.1,2,3.1,4.4 c0,2.5-1.4,4.4-3.1,4.4s-3.1-2-3.1-4.4S19.9,9.3,21.6,9.3z M11.9,19.8c0,0,0.4-3.7,2.9-3.9c2-0.2,3.5,2,3.6,3.3 c0.1,0.8,0.5,4.6-2.6,5.2C12.7,25.1,11.5,21.5,11.9,19.8z M35.7,35.5c-1.7,4-8,1.9-8,1.9s-2.3-0.7-5-0.1c-2.7,0.6-5,0.4-5,0.4 s-3.1,0.1-4-3.9s3.1-6.1,3.4-6.5s2.4-1.8,3.7-4c1.3-2.2,5.4-4,8.2,0.4c2.1,3,5.7,5.7,5.7,5.7S37.4,31.5,35.7,35.5L35.7,35.5z M35.1,26.4c-3.4,0.1-3.6-2.3-3.6-4c0-1.8,0.4-4.3,3.1-4.3c2.8,0,3.5,2.7,3.5,3.6C38.2,22.5,38.6,26.3,35.1,26.4L35.1,26.4z"/></svg>

<svg xmlns="http://www.w3.org/2000/svg" width="35" height="35" fill="none" viewBox="0 0 35 35"><path fill="url(#paint0_linear_934_2875)" d="M11.362 16.736a1.218 1.218 0 0 1 2.106 0l5.763 9.943a2.66 2.66 0 0 0 4.005.697c1.014-.84 1.156-2.343.507-3.483L14.687 8.329"></path><path fill="#175CD3" d="m33.955 24.02-5.557-9.611c-.729-1.267-2.36-1.694-3.626-.966-1.266.729-1.694 2.36-.966 3.626l5.558 9.61c.728 1.267 2.359 1.694 3.625.966s1.694-2.359.966-3.626M24.851 8.33c-.728-1.267-2.359-1.695-3.625-.967s-1.694 2.36-.966 3.626 2.359 1.694 3.625.966c1.267-.744 1.71-2.36.966-3.626M13.72 7.364a2 2 0 0 0-.252-.127 2.625 2.625 0 0 0-3.23.87l-.016.017c-.016.031-.032.047-.048.079-.015.031-.047.079-.063.11L1.086 23.878c-.174.3-.3.65-.348.982v.063a2 2 0 0 0-.047.412c-.016.76.285 1.52.902 2.026a2.67 2.67 0 0 0 1.678.634h.095a2.65 2.65 0 0 0 2.28-1.315l5.81-10.085 3.247-5.62a2.645 2.645 0 0 0-.982-3.61"></path><defs><linearGradient id="paint0_linear_934_2875" x1="11.362" x2="24.136" y1="18.162" y2="18.162" gradientUnits="userSpaceOnUse"><stop offset="0.144" stop-color="#194185"></stop><stop offset="0.218" stop-color="#1849A9"></stop><stop offset="0.375" stop-color="#175CD3"></stop><stop offset="0.579" stop-color="#175CD3"></stop><stop offset="1" stop-color="#175CD3"></stop></linearGradient></defs></svg>
